<svg width="25" height="25" viewBox="0 0 25 25" fill="none" xmlns="http://www.w3.org/2000/svg">
<path d="M16.75 13.5L21.973 16.982C22.0483 17.0321 22.1358 17.0609 22.2261 17.0652C22.3164 17.0695 22.4063 17.0493 22.486 17.0066C22.5657 16.9639 22.6324 16.9004 22.6789 16.8228C22.7254 16.7452 22.75 16.6565 22.75 16.566V8.37002C22.75 8.28204 22.7268 8.19562 22.6828 8.11947C22.6387 8.04332 22.5753 7.98014 22.4991 7.93632C22.4228 7.8925 22.3363 7.86958 22.2483 7.86988C22.1603 7.87017 22.074 7.89368 21.998 7.93802L16.75 11" stroke="#1E3C95" stroke-width="2" stroke-linecap="round" stroke-linejoin="round"/>
<path d="M14.75 6.5H4.75C3.64543 6.5 2.75 7.39543 2.75 8.5V16.5C2.75 17.6046 3.64543 18.5 4.75 18.5H14.75C15.8546 18.5 16.75 17.6046 16.75 16.5V8.5C16.75 7.39543 15.8546 6.5 14.75 6.5Z" stroke="#1E3C95" stroke-width="2" stroke-linecap="round" stroke-linejoin="round"/>
</svg>
